REM DIRINDEX 1\2,1\4,1\5,1\6,1\7,1\3\8,1\3\9,1\3\10
REM DIRNAME folder01,folder02,folder03,folder04,folder05,folder06,folder07,folder08,folder09,folder10
TITLE ""
FILE "DB4500_5th_5C_09.mp3" MP3
  TRACK 01 AUDIO
    TITLE "8:cjc113_3711"
    INDEX 01 00:00:00
  TRACK 02 AUDIO
    TITLE "0:"
    INDEX 01 00:01:09
  TRACK 03 AUDIO
    TITLE "9:cjc113_3712"
    INDEX 01 00:01:21
  TRACK 04 AUDIO
    TITLE "0:"
    INDEX 01 00:02:47
  TRACK 05 AUDIO
    TITLE "10:cjc113_3713"
    INDEX 01 00:02:53
  TRACK 06 AUDIO
    TITLE "0:"
    INDEX 01 00:05:69
  TRACK 07 AUDIO
    TITLE "8:cjc113_3714"
    INDEX 01 00:06:26
  TRACK 08 AUDIO
    TITLE "0:"
    INDEX 01 00:07:33
  TRACK 09 AUDIO
    TITLE "9:cjc113_3715"
    INDEX 01 00:07:43
  TRACK 10 AUDIO
    TITLE "0:"
    INDEX 01 00:09:10
  TRACK 11 AUDIO
    TITLE "10:cjc113_3716"
    INDEX 01 00:09:18
  TRACK 12 AUDIO
    TITLE "0:"
    INDEX 01 00:12:38
  TRACK 13 AUDIO
    TITLE "8:cjc113_3717"
    INDEX 01 00:12:69
  TRACK 14 AUDIO
    TITLE "0:"
    INDEX 01 00:14:15
  TRACK 15 AUDIO
    TITLE "9:cjc113_3718"
    INDEX 01 00:14:23
  TRACK 16 AUDIO
    TITLE "0:"
    INDEX 01 00:15:66
  TRACK 17 AUDIO
    TITLE "10:cjc113_3719"
    INDEX 01 00:15:74
  TRACK 18 AUDIO
    TITLE "0:"
    INDEX 01 00:19:36
  TRACK 19 AUDIO
    TITLE "8:cjc113_3720"
    INDEX 01 00:19:63
  TRACK 20 AUDIO
    TITLE "0:"
    INDEX 01 00:21:13
  TRACK 21 AUDIO
    TITLE "9:cjc113_3721"
    INDEX 01 00:21:23
  TRACK 22 AUDIO
    TITLE "0:"
    INDEX 01 00:22:30
  TRACK 23 AUDIO
    TITLE "10:cjc113_3722"
    INDEX 01 00:22:34
  TRACK 24 AUDIO
    TITLE "0:"
    INDEX 01 00:26:38
  TRACK 25 AUDIO
    TITLE "8:cjc113_3723"
    INDEX 01 00:26:71
  TRACK 26 AUDIO
    TITLE "0:"
    INDEX 01 00:28:13
  TRACK 27 AUDIO
    TITLE "9:cjc113_3724"
    INDEX 01 00:28:21
  TRACK 28 AUDIO
    TITLE "0:"
    INDEX 01 00:29:54
  TRACK 29 AUDIO
    TITLE "10:cjc113_3725"
    INDEX 01 00:29:64
  TRACK 30 AUDIO
    TITLE "0:"
    INDEX 01 00:32:35
  TRACK 31 AUDIO
    TITLE "8:cjc113_3726"
    INDEX 01 00:32:68
  TRACK 32 AUDIO
    TITLE "0:"
    INDEX 01 00:34:02
  TRACK 33 AUDIO
    TITLE "9:cjc113_3727"
    INDEX 01 00:34:10
  TRACK 34 AUDIO
    TITLE "0:"
    INDEX 01 00:35:45
  TRACK 35 AUDIO
    TITLE "10:cjc113_3728"
    INDEX 01 00:35:53
  TRACK 36 AUDIO
    TITLE "0:"
    INDEX 01 00:38:45
  TRACK 37 AUDIO
    TITLE "8:cjc113_3729"
    INDEX 01 00:39:13
  TRACK 38 AUDIO
    TITLE "0:"
    INDEX 01 00:40:36
  TRACK 39 AUDIO
    TITLE "9:cjc113_3730"
    INDEX 01 00:40:52
  TRACK 40 AUDIO
    TITLE "0:"
    INDEX 01 00:41:71
  TRACK 41 AUDIO
    TITLE "10:cjc113_3731"
    INDEX 01 00:42:18
  TRACK 42 AUDIO
    TITLE "0:"
    INDEX 01 00:46:39
  TRACK 43 AUDIO
    TITLE "8:cjc113_3732"
    INDEX 01 00:47:03
  TRACK 44 AUDIO
    TITLE "0:"
    INDEX 01 00:48:16
  TRACK 45 AUDIO
    TITLE "9:cjc113_3733"
    INDEX 01 00:48:32
  TRACK 46 AUDIO
    TITLE "0:"
    INDEX 01 00:49:74
  TRACK 47 AUDIO
    TITLE "10:cjc113_3734"
    INDEX 01 00:50:17
  TRACK 48 AUDIO
    TITLE "0:"
    INDEX 01 00:53:17
  TRACK 49 AUDIO
    TITLE "8:cjc113_3735"
    INDEX 01 00:53:58
  TRACK 50 AUDIO
    TITLE "0:"
    INDEX 01 00:55:18
  TRACK 51 AUDIO
    TITLE "9:cjc113_3736"
    INDEX 01 00:55:34
  TRACK 52 AUDIO
    TITLE "0:"
    INDEX 01 00:56:57
  TRACK 53 AUDIO
    TITLE "10:cjc113_3737"
    INDEX 01 00:56:71
  TRACK 54 AUDIO
    TITLE "0:"
    INDEX 01 01:00:62
  TRACK 55 AUDIO
    TITLE "8:cjc113_3738"
    INDEX 01 01:01:27
  TRACK 56 AUDIO
    TITLE "0:"
    INDEX 01 01:02:36
  TRACK 57 AUDIO
    TITLE "9:cjc113_3739"
    INDEX 01 01:02:54
  TRACK 58 AUDIO
    TITLE "0:"
    INDEX 01 01:03:59
  TRACK 59 AUDIO
    TITLE "10:cjc113_3740"
    INDEX 01 01:04:01
  TRACK 60 AUDIO
    TITLE "0:"
    INDEX 01 01:08:07
  TRACK 61 AUDIO
    TITLE "8:cjc113_3741"
    INDEX 01 01:08:44
  TRACK 62 AUDIO
    TITLE "0:"
    INDEX 01 01:09:61
  TRACK 63 AUDIO
    TITLE "9:cjc113_3742"
    INDEX 01 01:10:06
  TRACK 64 AUDIO
    TITLE "0:"
    INDEX 01 01:11:21
  TRACK 65 AUDIO
    TITLE "10:cjc113_3743"
    INDEX 01 01:11:39
  TRACK 66 AUDIO
    TITLE "0:"
    INDEX 01 01:16:03
  TRACK 67 AUDIO
    TITLE "8:cjc113_3744"
    INDEX 01 01:16:42
  TRACK 68 AUDIO
    TITLE "0:"
    INDEX 01 01:17:71
  TRACK 69 AUDIO
    TITLE "9:cjc113_3745"
    INDEX 01 01:18:11
  TRACK 70 AUDIO
    TITLE "0:"
    INDEX 01 01:19:48
  TRACK 71 AUDIO
    TITLE "10:cjc113_3746"
    INDEX 01 01:19:60
  TRACK 72 AUDIO
    TITLE "0:"
    INDEX 01 01:23:42
  TRACK 73 AUDIO
    TITLE "8:cjc113_3747"
    INDEX 01 01:24:06
  TRACK 74 AUDIO
    TITLE "0:"
    INDEX 01 01:25:33
  TRACK 75 AUDIO
    TITLE "9:cjc113_3748"
    INDEX 01 01:25:51
  TRACK 76 AUDIO
    TITLE "0:"
    INDEX 01 01:28:00
  TRACK 77 AUDIO
    TITLE "10:cjc113_3749"
    INDEX 01 01:28:16
  TRACK 78 AUDIO
    TITLE "0:"
    INDEX 01 01:31:00
